<svg width="274" height="243" viewBox="0 0 274 243" fill="none" xmlns="http://www.w3.org/2000/svg">
<g clip-path="url(#clip0_1_55)">
<path d="M150.317 58.014L142.311 62.6148L142.297 62.5942L140.963 60.2836C140.767 58.8423 140.45 57.4202 140.013 56.0324C140.653 53.0704 140.495 51.2465 140.206 50.1838C140.093 49.7349 139.851 49.329 139.508 49.0168C139.166 48.7047 138.739 48.5 138.28 48.4285C137.93 48.3848 137.575 48.4432 137.257 48.5965C136.94 48.7498 136.674 48.9915 136.492 49.2924C135.859 47.4891 136.794 45.0618 139.291 45.0618C142.139 45.0618 142.937 48.1884 141.726 49.9918C142.706 49.7303 143.746 49.7982 144.683 50.1849C145.621 50.5716 146.404 51.2556 146.912 52.131L150.255 57.9043L150.317 58.014ZM131.649 77.9667C133.293 83.3561 145.385 112.14 146.582 114.979L146.135 124.201C122.15 125.943 89.5939 104.728 87.9843 103.672C89.9035 103.417 91.7927 102.974 93.6247 102.349C95.4789 101.72 97.2799 100.945 99.0106 100.031C99.8911 99.5995 100.71 99.051 101.549 98.5504C102.347 97.9813 103.172 97.4465 103.929 96.8157C105.436 95.6512 106.829 94.3472 108.09 92.9211C109.101 93.0789 110.099 93.2228 111.103 93.3463L114.295 93.7919C116.42 94.0936 118.532 94.4776 120.671 94.7519C122.81 95.0079 124.962 95.1269 127.116 95.1084C129.273 95.0916 131.425 94.9128 133.554 94.5736C133.565 94.5704 133.575 94.5641 133.582 94.5556C133.589 94.5471 133.594 94.5367 133.596 94.5256C133.595 94.5131 133.59 94.5014 133.581 94.4925C133.572 94.4837 133.56 94.4784 133.548 94.4776C131.395 94.4707 129.262 94.4433 127.13 94.3542L120.733 94.0045C118.601 93.9016 116.455 93.7988 114.336 93.504C112.217 93.2023 110.106 92.7909 108.035 92.2835C107.977 92.2698 107.916 92.2771 107.863 92.3041C107.68 92.2115 107.517 92.083 107.385 91.9263C107.253 91.7696 107.153 91.5879 107.093 91.3921C106.908 90.8948 106.785 90.3766 106.728 89.8493C106.607 88.7772 106.582 87.6964 106.653 86.6199C106.498 87.6959 106.443 88.7838 106.488 89.8699C106.51 90.4245 106.598 90.9745 106.749 91.5086C106.835 91.7914 106.967 92.0579 107.141 92.2971C107.235 92.4217 107.346 92.5325 107.471 92.6263C106.179 93.8661 104.808 95.0205 103.365 96.082C101.821 97.2068 100.206 98.2306 98.5293 99.1469C95.1734 101.026 91.6122 102.514 87.9156 103.583C87.9038 103.587 87.8934 103.594 87.8859 103.604C87.8785 103.614 87.8745 103.626 87.8745 103.638C87.8752 103.643 87.8776 103.648 87.8813 103.652C86.9527 103.974 70.403 109.974 68.8415 119.216C67.6998 125.963 66.7917 133.862 67.1014 139.478L67.0394 139.724C51.4115 124.242 52.292 112.223 52.292 112.223C52.292 112.223 79.7647 76.4789 93.9 68.059C93.9 68.059 98.206 62.9029 111.825 64.1096C114.659 64.3565 118.03 64.8364 121.593 65.4398C121.609 65.6635 121.611 65.8879 121.6 66.1118C121.561 67.6646 121.914 69.2023 122.627 70.5837C123.34 71.965 124.389 73.1457 125.679 74.0174C126.703 74.7098 131.649 77.9667 131.649 77.9667ZM151.535 71.8437C148.701 75.8343 148.164 82.5539 148.164 82.5539L148.13 83.3012C145.224 78.9696 142.865 74.2969 141.107 69.3891C147.188 70.7536 151.535 71.8437 151.535 71.8437Z" fill="black"/>
<path d="M142.297 62.5941L141.183 63.2524C141.201 64.6107 141.02 65.9643 140.646 67.2704L166.736 52.5081L154.665 26.5831L123.725 42.6278L122.948 44.3419L129.393 56.1147C130.062 56.4393 130.78 56.6502 131.518 56.7386C130.129 54.7159 128.912 52.5972 127.728 50.458C126.507 48.2491 125.4 45.9789 124.413 43.6562C125.83 45.7458 127.138 47.9062 128.334 50.1289C129.496 52.2887 130.617 54.476 131.574 56.7455C132.244 56.8458 132.929 56.7203 133.52 56.389L133.513 56.3821L127.949 44.3419L153.461 30.3407L162.905 50.4443L150.256 57.9043L142.297 62.5941ZM11.8376 140.867C11.8376 140.867 12.9869 154.386 40.4554 135.139C40.4554 135.139 47.3513 130.785 52.9829 131.129C52.9829 131.129 55.1666 136.857 55.1666 141.669L44.2481 145.48C44.2481 145.48 45.3975 138.003 38.5016 141.554C38.5016 141.554 22.0665 158.854 0.804245 150.834C0.804245 150.834 -4.82738 148.199 11.8376 140.867ZM11.8376 140.867C15.0662 138.505 18.3418 136.216 21.6644 134.002C24.9769 131.771 28.3325 129.607 31.6964 127.457C35.0742 125.329 38.4612 123.215 41.8912 121.169C45.3108 119.105 48.7781 117.117 52.2933 115.204C49.0655 117.568 45.7903 119.857 42.4676 122.071C39.155 124.302 35.7994 126.465 32.4345 128.614C29.0559 130.741 25.6688 132.855 22.2386 134.901C18.8187 136.963 15.3517 138.952 11.8376 140.867ZM52.9829 131.129C53.789 129.664 54.6746 128.243 55.6358 126.874C56.5747 125.497 57.577 124.17 58.5915 122.852C59.6262 121.55 60.6743 120.259 61.7845 119.018C62.8807 117.759 64.0461 116.561 65.2751 115.43C64.4687 116.897 63.5822 118.32 62.6196 119.691C61.6811 121.066 60.6806 122.392 59.6665 123.706C58.6323 125.005 57.586 126.294 56.4761 127.534C55.378 128.794 54.2119 129.995 52.9829 131.129ZM73.5555 115.204C73.3712 115.293 73.2172 115.434 73.1128 115.609C73.0085 115.785 72.9585 115.987 72.9691 116.191C73.0147 116.593 73.1782 116.973 73.4393 117.283C73.9431 117.93 74.5372 118.502 75.2034 118.981C76.5365 119.959 77.9412 120.836 79.4057 121.605C82.3087 123.201 85.3386 124.572 88.3731 125.918C94.4567 128.586 100.683 130.934 106.866 133.439L116.115 137.224C119.191 138.498 122.274 139.751 125.371 140.943C126.92 141.54 128.482 142.096 130.055 142.599C131.613 143.121 133.215 143.506 134.841 143.749C135.645 143.86 136.458 143.885 137.268 143.825C138.073 143.753 138.856 143.529 139.577 143.165C141.006 142.332 142.196 141.146 143.031 139.721C142.636 140.458 142.179 141.16 141.666 141.82C141.128 142.479 140.482 143.041 139.754 143.483C139.009 143.918 138.188 144.208 137.335 144.339C136.486 144.456 135.627 144.482 134.773 144.418C133.09 144.248 131.425 143.928 129.8 143.461C128.176 143.022 126.585 142.495 125.004 141.949C118.688 139.739 112.535 137.182 106.349 134.708L97.0913 130.937C94.0136 129.645 90.9421 128.331 87.9279 126.887C84.8933 125.476 81.9357 123.905 79.0677 122.182C77.6316 121.312 76.263 120.335 74.9735 119.261C74.3172 118.725 73.7425 118.097 73.2674 117.397C73.0176 117.043 72.878 116.624 72.8659 116.192C72.8708 115.978 72.9388 115.77 73.0614 115.594C73.1841 115.419 73.3559 115.283 73.5555 115.204ZM146.134 150.891C146.491 153.088 146.711 155.288 146.884 157.49C147.066 159.692 147.167 161.897 147.252 164.101C147.312 166.307 147.355 168.514 147.317 170.723C147.288 172.931 147.211 175.141 146.996 177.356C146.638 175.16 146.417 172.959 146.244 170.757C146.063 168.555 145.962 166.351 145.878 164.146C145.82 161.94 145.778 159.734 145.815 157.525C145.845 155.316 145.922 153.106 146.134 150.891ZM165.443 91.6037C166.16 89.9747 167.116 88.4608 168.28 87.1116C169.423 85.7378 170.69 84.4712 172.064 83.3276C174.857 81.0751 177.958 79.232 181.273 77.8543C187.93 75.1707 195.008 73.672 202.185 73.4265C205.691 73.2922 209.179 72.8556 212.609 72.1216C216.022 71.3836 219.309 70.1551 222.367 68.4747C225.425 66.7859 228.089 64.4691 230.183 61.6774C231.237 60.2787 232.116 58.7565 232.8 57.1448C233.505 55.5287 233.986 53.8242 234.229 52.0785C234.133 53.8565 233.766 55.6096 233.14 57.2771C232.537 58.9642 231.729 60.5715 230.735 62.0632C228.703 65.0545 226.031 67.5594 222.911 69.3974C221.369 70.3348 219.743 71.1291 218.056 71.7701C216.376 72.4197 214.655 72.9595 212.905 73.3861C209.404 74.1698 205.84 74.6413 202.255 74.7951C195.223 75.0284 188.275 76.3943 181.68 78.84C178.404 80.0958 175.31 81.7812 172.48 83.8518C171.067 84.8957 169.753 86.0663 168.553 87.3489C167.333 88.6241 166.287 90.0548 165.443 91.6037Z" fill="black"/>
<path d="M156.012 66.0954C156.332 64.6077 156.865 63.1734 157.593 61.8364C158.307 60.4883 159.14 59.2071 160.085 58.0084C161.993 55.626 164.233 53.5273 166.737 51.776C167.369 51.3517 167.994 50.9166 168.641 50.5193L170.635 49.4185L171.631 48.8726L172.662 48.3955C173.348 48.0744 174.039 47.7685 174.715 47.4355C176.098 46.8318 177.502 46.2809 178.877 45.6638C180.294 45.1533 181.704 44.6176 183.106 44.0567C183.146 44.0408 183.189 44.0361 183.232 44.0433L183.267 44.0495C185.247 44.3769 187.252 44.5208 189.258 44.4794C191.241 44.4774 193.217 44.2411 195.144 43.7754C197.02 43.3352 198.766 42.4623 200.243 41.2268C200.942 40.603 201.544 39.8798 202.032 39.0807C202.509 38.2641 202.877 37.3885 203.126 36.4764L203.143 36.4169C203.182 36.2842 203.263 36.1675 203.374 36.0838C203.484 36.0001 203.619 35.9538 203.757 35.9517C205.146 35.9563 206.529 36.1165 207.882 36.4295C209.207 36.7279 210.507 37.1249 211.773 37.6171C213.023 38.1216 214.241 38.7025 215.42 39.3566C216.583 40.0205 217.704 40.7563 218.775 41.5599C218.782 41.5653 218.788 41.5721 218.793 41.5798C218.797 41.5876 218.8 41.5962 218.802 41.6051C218.803 41.6141 218.802 41.6232 218.8 41.6319C218.798 41.6406 218.794 41.6488 218.789 41.656C218.778 41.669 218.764 41.678 218.747 41.6814C218.731 41.6847 218.714 41.6823 218.699 41.6746L216.937 40.7492C216.334 40.4731 215.753 40.1589 215.138 39.917C213.939 39.3794 212.708 38.916 211.452 38.5292C210.204 38.1512 208.933 37.8515 207.648 37.6319C206.393 37.4061 205.119 37.3071 203.845 37.3366L204.476 36.8121C204.218 37.8632 203.82 38.8754 203.294 39.8219C202.734 40.7605 202.029 41.6058 201.206 42.3269C199.538 43.6852 197.563 44.6176 195.452 45.0433C193.412 45.4816 191.323 45.6438 189.24 45.5257C187.182 45.4148 185.137 45.1189 183.132 44.6415L183.293 44.6343C181.868 45.0854 180.448 45.5601 179.033 46.0583C178.342 46.3455 177.657 46.6478 176.973 46.9519C176.291 47.2599 175.597 47.5432 174.941 47.9017C174.282 48.2552 173.637 48.6358 172.986 49.0013L172.014 49.5539L171.081 50.1711L169.221 51.4028L167.441 52.7355C165.058 54.4845 162.862 56.4735 160.887 58.6711C159.911 59.7799 159.015 60.9562 158.205 62.1912C157.371 63.4205 156.68 64.7404 156.146 66.1255L156.143 66.1321C156.137 66.1481 156.126 66.1614 156.11 66.1692C156.095 66.177 156.077 66.1788 156.061 66.1742C156.044 66.1696 156.03 66.1589 156.021 66.1443C156.012 66.1298 156.008 66.1123 156.012 66.0955L156.012 66.0954Z" fill="black"/>
<path d="M184.954 44.7099C184.11 43.9982 183.163 43.2241 182.11 43.5158C181.575 43.6427 181.052 43.812 180.545 44.0224L178.954 44.6048C177.87 45.0196 176.743 45.3125 175.595 45.4783C174.998 45.5528 174.394 45.5615 173.796 45.5044C173.187 45.4282 172.591 45.2686 172.026 45.03C170.914 44.5404 169.929 43.8049 169.145 42.8791C168.379 41.9949 167.713 41.0283 167.162 39.9972C166.605 38.9975 166.116 38.0148 165.543 37.0632C165.267 36.586 164.983 36.1128 164.678 35.6755C164.535 35.463 164.378 35.2602 164.208 35.0683C164.145 34.9923 164.074 34.9221 163.998 34.8584C163.965 34.8288 163.962 34.8371 164.005 34.8405C164.102 34.8548 164.201 34.8336 164.283 34.7808C164.366 34.7281 164.426 34.6473 164.453 34.5535L164.058 34.9066C163.41 35.0087 162.747 34.8632 162.202 34.4992C161.917 34.3141 161.685 34.0581 161.528 33.7565C161.369 33.4461 161.311 33.0935 161.364 32.7487C161.59 31.4374 162.675 30.7831 163.228 30.092C163.846 29.3338 164.276 28.441 164.483 27.4861C164.705 26.5187 164.752 25.5196 164.623 24.5356L164.7 24.6667C164.02 24.0561 163.511 23.2793 163.223 22.4129C162.931 21.5693 162.767 20.6869 162.737 19.795C162.692 18.9126 162.719 18.0281 162.817 17.1501C162.897 16.2685 163.035 15.3931 163.231 14.5297C163.243 14.4774 163.268 14.429 163.304 14.389C163.34 14.3491 163.386 14.3188 163.437 14.3012C163.488 14.2835 163.542 14.279 163.595 14.2881C163.648 14.2971 163.698 14.3194 163.741 14.3529L163.759 14.3676C165.825 16.0287 167.97 17.6032 170.13 19.1284C171.211 19.8881 172.308 20.6251 173.43 21.2953C173.99 21.6299 174.555 21.9523 175.125 22.2257C175.609 22.4937 176.142 22.6635 176.692 22.7252L176.077 23.3556C176.11 22.6821 176.227 22.0152 176.425 21.3705C176.626 20.6578 177.018 20.0133 177.56 19.5063C177.712 19.3656 177.884 19.2481 178.07 19.1576L178.354 19.0173L178.659 18.9367C178.761 18.9127 178.864 18.8861 178.966 18.869L179.268 18.8613C179.464 18.8482 179.66 18.8632 179.852 18.9058C180.602 19.0228 181.298 19.3681 181.844 19.8945C182.357 20.3791 182.77 20.9586 183.061 21.6008C183.347 22.2034 183.564 22.8358 183.709 23.4863C183.853 24.1282 183.935 24.7822 183.955 25.4396C183.964 25.7785 183.953 26.1177 183.92 26.4551C183.896 26.6427 183.861 26.8287 183.816 27.0124L183.716 27.3237C183.642 27.4745 183.55 27.6163 183.442 27.7461L183.276 26.6241C184.706 27.3891 186.161 28.1409 187.621 28.8501C188.354 29.1974 189.09 29.5407 189.834 29.8398C190.522 30.1463 191.248 30.3634 191.992 30.4858L192.057 30.4918C192.138 30.4997 192.217 30.527 192.285 30.5715C194.114 31.766 195.958 32.9717 197.854 34.0694C198.804 34.6141 199.756 35.1582 200.735 35.6454C201.222 35.8897 201.721 36.1092 202.23 36.303C202.712 36.5284 203.246 36.624 203.777 36.5801L203.791 36.5772C203.808 36.5735 203.826 36.5765 203.84 36.5856C203.855 36.5947 203.866 36.6092 203.871 36.6261C203.875 36.643 203.873 36.6609 203.865 36.6762C203.856 36.6916 203.842 36.703 203.826 36.7083C203.263 36.828 202.678 36.7887 202.137 36.5949C201.6 36.442 201.071 36.262 200.553 36.0555C199.517 35.6481 198.508 35.1856 197.518 34.6871C195.541 33.6851 193.595 32.6382 191.699 31.4831L191.992 31.5688C191.106 31.4845 190.236 31.2726 189.411 30.9397C188.619 30.6557 187.854 30.334 187.09 30.0074C185.565 29.3483 184.079 28.638 182.606 27.8692L182.44 26.747C182.415 26.7431 182.398 26.772 182.404 26.7778C182.413 26.7348 182.424 26.6922 182.438 26.6503C182.464 26.5642 182.473 26.4181 182.494 26.3057C182.514 26.0339 182.518 25.7611 182.506 25.4889C182.474 24.9241 182.396 24.3628 182.272 23.8106C182.081 22.7445 181.586 21.7557 180.846 20.9621C180.51 20.6275 180.08 20.4025 179.612 20.3169C179.415 20.266 179.209 20.2617 179.011 20.3044C178.812 20.3472 178.626 20.4358 178.468 20.5631C177.809 21.1006 177.477 22.3513 177.393 23.4043L177.388 23.4576C177.375 23.6118 177.306 23.7559 177.193 23.8624C177.08 23.9688 176.932 24.0302 176.777 24.0349C176.355 24.0338 175.937 23.954 175.544 23.7995C175.209 23.6727 174.881 23.5274 174.562 23.3642C173.951 23.0511 173.357 22.7064 172.782 22.3313C171.645 21.5923 170.561 20.8017 169.494 19.9911C167.364 18.3652 165.344 16.624 163.334 14.8639L163.862 14.702C163.383 16.3487 163.162 18.0594 163.207 19.7734C163.219 20.6231 163.358 21.4663 163.621 22.2747C163.877 23.0695 164.347 23.7793 164.978 24.3273L164.987 24.3348C165.025 24.3662 165.049 24.4104 165.056 24.4587C165.212 25.4992 165.195 26.5583 165.006 27.5934C164.831 28.651 164.416 29.6547 163.793 30.5282C163.633 30.7476 163.459 30.9567 163.273 31.1543C163.104 31.3509 162.944 31.5148 162.795 31.7022C162.516 32.0269 162.331 32.4218 162.262 32.8438C162.249 33.0123 162.287 33.1807 162.372 33.327C162.456 33.4733 162.584 33.5906 162.737 33.6634C163.065 33.8512 163.449 33.9174 163.821 33.8501L163.426 34.203C163.485 34.0459 163.6 33.9154 163.748 33.8357C163.896 33.756 164.068 33.7324 164.233 33.7693C164.37 33.8011 164.5 33.8582 164.616 33.9378C164.768 34.0388 164.907 34.1571 165.032 34.2903C165.244 34.5126 165.44 34.7488 165.62 34.9973C165.974 35.4718 166.285 35.9551 166.588 36.4422C167.181 37.4161 167.714 38.4393 168.243 39.4102C169.269 41.3173 170.588 43.1596 172.462 44.0393C173.417 44.4664 174.466 44.6429 175.509 44.5519C176.602 44.4557 177.681 44.2387 178.726 43.9047C179.809 43.5405 180.917 43.2522 182.04 43.0418C182.651 42.959 183.271 43.1058 183.78 43.4536C184.246 43.7901 184.672 44.1786 185.049 44.6116C185.062 44.6248 185.069 44.6425 185.068 44.6607C185.068 44.6789 185.06 44.6961 185.047 44.7086C185.034 44.72 185.017 44.7265 185 44.7267C184.983 44.7269 184.967 44.721 184.954 44.7099Z" fill="black"/>
<path d="M180.786 29.1369C181.113 28.7862 181.461 28.4551 181.827 28.1452L182.343 27.7082C182.534 27.5434 182.733 27.3893 182.941 27.2466C182.946 27.5174 182.888 27.7857 182.773 28.0311C182.658 28.2765 182.488 28.4926 182.277 28.663C182.075 28.8374 181.841 28.9725 181.589 29.0613C181.333 29.1591 181.056 29.1852 180.786 29.1369ZM196.262 33.589C196.262 33.589 200.267 36.2686 204.232 29.1369C208.197 22.0052 198.543 21.5755 198.543 21.5755C198.543 21.5755 202.508 2.58631 187.408 0.266356C172.308 -2.0536 163.546 14.6157 163.546 14.6157C163.546 14.6157 173.888 23.4382 176.735 23.38C176.735 23.38 176.9 17.8604 180.97 20.1113C180.97 20.1113 183.815 21.8629 182.941 27.2465C182.941 27.2465 191.228 31.1857 191.992 31.0272C192.756 30.8687 196.262 33.589 196.262 33.589ZM166.734 37.9151C167.334 37.8154 167.928 37.6808 168.512 37.5118C168.778 37.4275 169.034 37.3136 169.274 37.1723C169.54 37.0093 169.796 36.8304 170.04 36.6366C170.008 36.9882 169.862 37.3197 169.622 37.58C169.381 37.8493 169.073 38.0501 168.729 38.1618C168.394 38.2684 168.041 38.3029 167.691 38.2631C167.347 38.2317 167.017 38.1118 166.734 37.9151ZM164.839 24.497C165.108 24.0929 165.46 23.7508 165.873 23.4935C166.284 23.2273 166.737 23.0314 167.213 22.9138C167.692 22.7924 168.19 22.7642 168.68 22.8309C169.165 22.8879 169.631 23.0562 170.04 23.3227C169.551 23.3394 169.107 23.3149 168.665 23.3658C168.23 23.3989 167.798 23.4703 167.376 23.5794C166.504 23.807 165.655 24.1142 164.839 24.497ZM167.109 31.8578C167.331 31.9377 167.516 32.0954 167.63 32.3014C167.756 32.5162 167.807 32.7666 167.775 33.0135C167.741 33.2718 167.606 33.5063 167.399 33.6659C167.307 33.7408 167.2 33.7967 167.086 33.8305C166.972 33.8643 166.852 33.8752 166.734 33.8627C166.832 33.6357 166.93 33.4774 166.987 33.3233C167.043 33.1941 167.08 33.0571 167.095 32.9169C167.125 32.5647 167.13 32.2107 167.109 31.8578ZM181.864 41.5959C182.674 40.2416 183.38 38.8284 183.977 37.3682C184.275 36.6458 184.537 35.9088 184.76 35.16C185.002 34.411 185.168 33.6436 185.383 32.8603C185.46 33.6684 185.427 34.4832 185.283 35.2822C185.148 36.0856 184.924 36.8715 184.614 37.6254C184.31 38.3805 183.926 39.1012 183.469 39.7754C183.025 40.4564 182.484 41.0696 181.864 41.5959ZM167.741 28.2347C168.021 28.225 168.285 28.1077 168.48 27.9073C168.674 27.7069 168.782 27.4392 168.782 27.1606C168.782 26.882 168.674 26.6143 168.48 26.4139C168.285 26.2136 168.021 26.0962 167.741 26.0866C167.462 26.0962 167.197 26.2136 167.003 26.4139C166.809 26.6143 166.701 26.882 166.701 27.1606C166.701 27.4392 166.809 27.7069 167.003 27.9073C167.197 28.1077 167.462 28.225 167.741 28.2347Z" fill="black"/>
<path d="M180.786 27.2993C180.972 27.2929 181.149 27.2147 181.278 27.0811C181.408 26.9475 181.48 26.769 181.48 26.5833C181.48 26.3976 181.408 26.2191 181.278 26.0855C181.149 25.952 180.972 25.8737 180.786 25.8673C180.6 25.8737 180.423 25.952 180.294 26.0855C180.164 26.2191 180.092 26.3976 180.092 26.5833C180.092 26.769 180.164 26.9475 180.294 27.0811C180.423 27.2147 180.6 27.2929 180.786 27.2993Z" fill="black"/>
<path d="M87.9832 103.672C87.9628 103.672 87.9492 103.679 87.9287 103.679C87.9238 103.68 87.9187 103.68 87.9137 103.68C87.9086 103.679 87.9038 103.678 87.8993 103.675C87.8949 103.673 87.8911 103.669 87.888 103.665C87.8848 103.661 87.8826 103.657 87.8812 103.652L87.9221 103.631L87.9832 103.672Z" fill="white"/>
<path d="M148.114 83.401C147.244 82.2218 146.425 81.0049 145.658 79.7503C144.891 78.4985 144.15 77.2271 143.485 75.916C142.816 74.6068 142.191 73.2754 141.609 71.9217C141.021 70.5724 140.513 69.1866 140.034 67.7758C140.003 67.6852 140.002 67.587 140.032 67.496L140.043 67.4627C140.581 65.6438 140.753 63.7366 140.548 61.8512C140.467 60.8947 140.333 59.9435 140.145 59.0021C139.962 58.0642 139.724 57.1378 139.433 56.2275C139.399 56.123 139.393 56.0116 139.414 55.9039C139.661 54.7813 139.804 53.6386 139.842 52.49C139.856 51.9337 139.817 51.3775 139.725 50.8286C139.687 50.5795 139.624 50.3346 139.538 50.0976C139.451 49.8863 139.328 49.6913 139.175 49.5208C139.031 49.3565 138.854 49.2239 138.655 49.1315C138.457 49.039 138.241 48.9888 138.022 48.9839C137.809 48.9883 137.6 49.0448 137.414 49.1484C137.227 49.252 137.069 49.3995 136.953 49.5782C136.35 50.5289 135.914 51.5759 135.665 52.6736L135.18 54.393C135.091 54.6892 135.024 54.9519 134.901 55.2804C134.779 55.6016 134.603 55.8999 134.381 56.1628C133.919 56.6818 133.28 57.0114 132.588 57.0877C131.948 57.1568 131.3 57.0992 130.682 56.9181C129.497 56.5677 128.39 55.9936 127.422 55.2269C126.937 54.8483 126.5 54.4112 126.122 53.9255C125.757 53.4604 125.373 53.0075 124.985 52.5588C123.434 50.7602 121.784 49.0429 120.102 47.3604L118.838 46.1088C118.422 45.7163 117.949 45.3874 117.436 45.133C116.927 44.8788 116.378 44.7161 115.812 44.6523C115.301 44.543 114.768 44.6343 114.323 44.9071C114.162 45.0915 114.051 45.3135 114 45.5523C113.949 45.7911 113.959 46.0389 114.03 46.2726C114.084 46.5442 114.154 46.8126 114.237 47.0768C114.337 47.3406 114.454 47.6019 114.563 47.8637C115.092 48.901 115.726 49.8819 116.454 50.7912C117.918 52.6349 119.514 54.3706 121.229 55.9845C121.314 56.0652 121.37 56.1704 121.391 56.2851C121.412 56.3998 121.395 56.518 121.345 56.623L121.34 56.632C120.95 57.5575 120.802 58.5666 120.91 59.5647C120.948 60.075 121.037 60.5804 121.173 61.0738C121.3 61.5706 121.499 62.0379 121.684 62.6078C122.063 63.7218 122.255 64.8907 122.25 66.067C122.218 67.0869 122.377 68.1038 122.72 69.0654C123.054 70.0307 123.555 70.9304 124.2 71.7241C124.525 72.115 124.883 72.4767 125.271 72.8052C125.672 73.141 126.096 73.4472 126.541 73.7214L132.055 77.3547C132.192 77.4452 132.296 77.5794 132.347 77.7356L132.353 77.7534C133.384 80.8587 134.628 83.9977 135.831 87.1062L139.479 96.4548L143.134 105.806C144.356 108.921 145.55 112.051 146.741 115.177L146.743 115.18C146.749 115.197 146.748 115.215 146.741 115.232C146.734 115.248 146.721 115.261 146.705 115.268C146.689 115.275 146.67 115.275 146.653 115.269C146.637 115.262 146.623 115.25 146.616 115.233C145.205 112.191 143.824 109.14 142.472 106.079C141.128 103.012 139.759 99.956 138.46 96.87L134.564 87.6081C133.311 84.4913 132.029 81.4261 130.945 78.1802L131.243 78.5788L125.73 74.918C125.242 74.6054 124.777 74.2584 124.339 73.8795C122.99 72.7095 121.986 71.194 121.438 69.4969C121.058 68.3747 120.892 67.1917 120.947 66.0085C120.959 64.9813 120.803 63.959 120.486 62.9818C120.342 62.5027 120.113 61.9524 119.983 61.3778C119.842 60.8065 119.756 60.2229 119.726 59.6352C119.631 58.4327 119.85 57.2262 120.36 56.1323L120.47 56.7796C118.752 55.0858 117.177 53.2536 115.761 51.3017C115.038 50.3204 114.415 49.2697 113.902 48.1652C113.791 47.8747 113.674 47.5874 113.574 47.2923C113.487 46.9867 113.419 46.6763 113.369 46.3628C113.319 46.0327 113.326 45.6967 113.389 45.3689C113.455 45.0025 113.651 44.6717 113.94 44.4369C114.227 44.2569 114.546 44.1354 114.879 44.0796C115.213 44.0238 115.555 44.0348 115.884 44.1118C116.503 44.2072 117.104 44.4001 117.662 44.6835C118.216 44.9663 118.724 45.3293 119.171 45.7607L120.431 47.039C122.088 48.7551 123.729 50.4858 125.318 52.2697L126.488 53.6308C126.853 54.0777 127.273 54.4773 127.737 54.8205C128.661 55.5167 129.716 56.0189 130.84 56.2969C131.927 56.5636 133.155 56.4586 133.771 55.6592C134.069 55.2107 134.265 54.7019 134.344 54.1693L134.758 52.435C134.988 51.1979 135.438 50.0117 136.086 48.9319C136.297 48.6276 136.567 48.3681 136.88 48.1685C137.221 47.9586 137.614 47.8459 138.015 47.8427C138.395 47.8408 138.771 47.9173 139.119 48.0673C139.467 48.2173 139.781 48.4376 140.04 48.7144C140.293 48.9817 140.497 49.2902 140.646 49.6265C140.776 49.944 140.87 50.2753 140.925 50.6139C141.034 51.2384 141.082 51.8717 141.07 52.5053C141.042 53.7362 140.889 54.961 140.612 56.1608L140.594 55.8374C140.893 56.8023 141.135 57.784 141.318 58.7774C141.505 59.7654 141.635 60.7634 141.707 61.7663C141.881 63.805 141.646 65.8577 141.015 67.8048L141.025 67.492C141.437 68.8653 141.878 70.2463 142.408 71.6002C142.926 72.9565 143.492 74.2949 144.106 75.6152C144.721 76.933 145.35 78.2473 146.043 79.5304C146.733 80.8144 147.466 82.0764 148.228 83.3249C148.238 83.34 148.241 83.3581 148.237 83.3755C148.233 83.3928 148.223 83.408 148.208 83.4178C148.193 83.4277 148.175 83.4314 148.158 83.4283C148.14 83.4251 148.124 83.4153 148.114 83.401H148.114Z" fill="black"/>
<path d="M131.649 56.9306C131.608 56.869 131.56 56.8003 131.518 56.7386C131.535 56.7472 131.555 56.7497 131.573 56.7455C131.594 56.8072 131.621 56.869 131.649 56.9306Z" fill="white"/>
<path d="M86.7416 157.415C87.1891 158.235 87.4726 159.134 87.5764 160.062C87.7107 161.02 87.6403 161.995 87.3698 162.924C87.2284 163.433 86.9788 163.906 86.638 164.31C86.2972 164.715 85.8731 165.041 85.3944 165.268C84.9349 165.454 84.4407 165.54 83.945 165.521C83.4493 165.501 82.9636 165.376 82.5201 165.155C83.358 165.061 84.1637 164.779 84.8766 164.331C85.4531 163.863 85.8668 163.226 86.0587 162.51C86.2857 161.716 86.4359 160.902 86.5071 160.08L86.7416 157.415ZM100.622 164.124C100.87 164.753 101.054 165.405 101.172 166.07C101.292 166.712 101.374 167.35 101.433 167.983C101.493 168.616 101.526 169.245 101.561 169.868C101.581 170.179 101.589 170.491 101.631 170.793C101.641 171.11 101.737 171.419 101.909 171.685C101.723 171.648 101.548 171.572 101.393 171.464C101.238 171.355 101.107 171.216 101.009 171.054C100.802 170.76 100.634 170.441 100.506 170.105C100.268 169.462 100.119 168.791 100.063 168.108C100.003 167.44 100.013 166.768 100.094 166.102C100.169 165.42 100.347 164.753 100.622 164.124ZM72.2787 162.811L68.2657 174.755C60.0002 171.723 58.2715 163.437 58.2715 163.437C58.2715 163.437 60.0577 159.508 72.2787 162.811Z" fill="black"/>
<path d="M102.75 186.923L94.8196 189.558L87.8088 186.923L90.3373 183.027C90.3373 183.027 87.3491 178.392 78.6095 176.507L81.6265 168.325C83.8006 169.828 91.2519 174.893 93.2106 174.893C93.2106 174.893 97.8078 169.279 102.75 172.258C102.75 172.258 105.508 183.027 102.75 186.923Z" fill="black"/>
<path d="M85.8309 156.93C84.9311 159.915 83.9855 162.882 83.0177 165.841C82.0534 168.802 81.0676 171.755 80.0603 174.699C79.047 177.642 78.0468 180.589 76.9984 183.519C75.9642 186.454 74.9275 189.388 73.8539 192.309C73.7836 192.5 73.6563 192.666 73.4891 192.783C73.3219 192.9 73.1227 192.964 72.9182 192.965L72.9107 192.965L67.8107 192.988C67.6685 192.988 67.5278 192.958 67.3975 192.901C67.2672 192.844 67.1503 192.761 67.0541 192.656L63.1591 188.406L63.1556 188.402C63.0344 188.27 62.951 188.107 62.914 187.932C62.877 187.756 62.8877 187.574 62.9451 187.404C63.9706 184.378 65.0155 181.359 66.0798 178.346C67.1296 175.328 68.2121 172.321 69.3018 169.316C70.386 166.31 71.4964 163.312 72.6328 160.323C73.7671 157.333 74.9181 154.349 76.124 151.383C75.2919 154.474 74.405 157.546 73.5013 160.613C72.5918 163.678 71.6763 166.741 70.7244 169.791C69.7791 172.844 68.8263 175.894 67.838 178.933C66.87 181.978 65.8777 185.016 64.861 188.045L64.647 187.043L68.5671 191.27L67.8107 190.939L72.9106 190.962L71.9676 191.618C73.0468 188.699 74.1629 185.794 75.2814 182.89C76.3859 179.981 77.5382 177.089 78.678 174.193C79.8283 171.3 80.996 168.414 82.1809 165.535C83.3675 162.655 84.5763 159.784 85.8309 156.93Z" fill="black"/>
<path d="M81.7418 154.683C80.8474 157.889 79.8259 161.047 78.7596 164.189C77.7014 167.334 76.5678 170.451 75.4196 173.562C74.2472 176.665 73.0587 179.761 71.7952 182.83C70.5397 185.901 69.2384 188.956 67.809 191.963C68.7017 188.757 69.7226 185.598 70.7892 182.456C71.8478 179.312 72.9814 176.195 74.1312 173.084C75.3051 169.982 76.4936 166.886 77.7575 163.817C79.0134 160.746 80.314 157.691 81.7418 154.683ZM150.965 185.923C151.392 190.154 151.72 194.389 152.089 198.623C152.453 202.857 152.761 207.093 153.074 211.33C153.369 215.567 153.682 219.804 153.941 224.043C154.213 228.282 154.49 232.521 154.722 236.762L154.347 236.035L160.396 240.827L159.406 240.663L166.135 238.272L165.466 239.264C165.289 234.822 165.117 230.38 164.985 225.936C164.831 221.493 164.702 217.049 164.599 212.604C164.48 208.159 164.392 203.714 164.334 199.267C164.296 194.819 164.208 190.373 164.229 185.923C164.624 190.356 164.911 194.793 165.248 199.229C165.559 203.665 165.845 208.102 166.107 212.541C166.373 216.979 166.619 221.418 166.845 225.858C167.087 230.297 167.291 234.738 167.488 239.179C167.498 239.393 167.439 239.604 167.319 239.782C167.2 239.961 167.027 240.096 166.825 240.169L166.819 240.171L160.101 242.592C159.936 242.651 159.758 242.667 159.585 242.639C159.411 242.61 159.248 242.537 159.111 242.428L153.093 237.597L153.09 237.594C152.981 237.506 152.891 237.396 152.827 237.271C152.763 237.146 152.726 237.009 152.718 236.869C152.491 232.628 152.308 228.385 152.121 224.141C151.921 219.899 151.775 215.653 151.611 211.409C151.465 207.163 151.313 202.918 151.218 198.67C151.129 194.421 150.997 190.175 150.965 185.923Z" fill="black"/>
<path d="M158.721 186.339C159.073 190.941 159.337 195.545 159.514 200.151C159.71 204.756 159.825 209.363 159.925 213.97C159.999 218.578 160.056 223.186 160.032 227.795C160.028 232.404 159.936 237.015 159.754 241.627C159.4 237.025 159.135 232.421 158.959 227.815C158.764 223.21 158.648 218.603 158.55 213.996C158.478 209.388 158.421 204.78 158.445 200.171C158.449 195.562 158.541 190.951 158.721 186.339ZM220.1 153.301C221.741 156.77 223.304 160.27 224.867 163.77C226.412 167.278 227.952 170.787 229.45 174.313C230.972 177.83 232.436 181.37 233.919 184.902L238.285 195.533C238.381 195.771 238.384 196.038 238.293 196.278C238.201 196.519 238.022 196.716 237.791 196.831L232.268 199.567L232.262 199.57C232.142 199.629 232.011 199.663 231.878 199.672C231.745 199.68 231.611 199.662 231.485 199.618L227.009 198.053L226.997 198.049C226.873 198.005 226.759 197.936 226.661 197.847C226.564 197.759 226.486 197.651 226.432 197.531C223.893 191.896 221.395 186.242 218.937 180.57C217.729 177.724 216.498 174.889 215.318 172.03C214.12 169.18 212.953 166.315 211.817 163.436C213.265 166.172 214.684 168.922 216.075 171.684C217.481 174.439 218.836 177.217 220.214 179.985C222.931 185.539 225.604 191.113 228.234 196.706L227.658 196.185L232.146 197.713L231.363 197.764L236.873 195L236.38 196.298L232.129 185.622C230.74 182.052 229.332 178.489 227.981 174.904C226.608 171.327 225.276 167.734 223.949 164.139C222.64 160.537 221.33 156.935 220.1 153.301Z" fill="black"/>
<path d="M215.036 160.483C216.695 163.551 218.23 166.674 219.721 169.815C221.22 172.953 222.645 176.123 224.056 179.299C225.443 182.486 226.814 185.679 228.112 188.905C229.418 192.127 230.679 195.369 231.815 198.665C230.155 195.598 228.62 192.476 227.129 189.334C225.631 186.196 224.206 183.026 222.796 179.849C221.411 176.662 220.039 173.469 218.741 170.243C217.436 167.02 216.174 163.779 215.036 160.483ZM245.239 109.986C245.465 112.234 245.669 114.475 245.85 116.708C246.032 118.944 246.232 121.174 246.359 123.413C246.466 125.652 246.53 127.906 246.806 130.136C247.09 132.364 247.532 134.57 248.13 136.736C248.735 138.899 249.354 141.049 250.04 143.17C250.739 145.287 251.527 147.364 252.405 149.4C254.177 153.442 256.33 157.373 259.67 160.428C259.682 160.44 259.69 160.456 259.692 160.473C259.694 160.49 259.689 160.507 259.679 160.52C259.669 160.534 259.654 160.544 259.637 160.547C259.62 160.55 259.603 160.547 259.588 160.539C257.639 159.317 255.934 157.744 254.563 155.9C253.181 154.064 252.007 152.082 251.062 149.99C250.153 147.898 249.397 145.743 248.801 143.542C248.187 141.358 247.716 139.136 247.393 136.891C247.034 134.657 246.746 132.422 246.365 130.2C246.175 129.088 245.973 127.977 245.761 126.867C245.569 125.753 245.376 124.638 245.219 123.518C244.946 121.275 244.801 119.018 244.785 116.758C244.742 114.495 244.848 112.233 245.102 109.984C245.103 109.975 245.106 109.966 245.11 109.958C245.114 109.951 245.12 109.944 245.127 109.938C245.135 109.932 245.143 109.928 245.152 109.926C245.16 109.923 245.169 109.923 245.178 109.924C245.194 109.926 245.209 109.933 245.22 109.945C245.231 109.956 245.238 109.971 245.239 109.986ZM235.748 109.982C236.057 112.162 236.216 114.361 236.226 116.563C236.263 118.762 236.169 120.961 235.946 123.149C235.687 125.335 235.28 127.501 234.948 129.668C234.614 131.836 234.369 134.015 234.064 136.195C233.508 140.591 232.37 144.893 230.68 148.991C229.792 151.04 228.679 152.985 227.361 154.79C226.055 156.6 224.446 158.173 222.604 159.439C222.596 159.444 222.588 159.447 222.579 159.449C222.57 159.451 222.561 159.451 222.552 159.449C222.543 159.447 222.534 159.444 222.527 159.439C222.519 159.433 222.513 159.427 222.508 159.419C222.499 159.406 222.495 159.39 222.497 159.374C222.499 159.359 222.506 159.344 222.517 159.333C225.611 156.205 227.674 152.386 229.33 148.419C230.146 146.427 230.902 144.401 231.555 142.333C232.176 140.257 232.766 138.163 233.325 136.052C233.872 133.936 234.266 131.784 234.505 129.612C234.736 127.439 234.743 125.245 234.804 123.066C234.882 120.887 235.03 118.715 235.16 116.537C235.289 114.359 235.439 112.176 235.611 109.988C235.612 109.97 235.62 109.953 235.634 109.941C235.648 109.929 235.666 109.922 235.684 109.923C235.7 109.925 235.715 109.931 235.726 109.942C235.738 109.952 235.746 109.967 235.748 109.982ZM261.94 160.416C262.968 160.474 263.957 160.827 264.79 161.431C265.258 161.782 265.585 162.288 265.712 162.858C265.819 163.435 265.745 164.03 265.5 164.564C265.05 165.511 264.408 166.356 263.614 167.044C262.879 167.724 262.08 168.332 261.228 168.859C259.461 169.762 257.61 170.491 255.702 171.036C255.245 171.21 254.766 171.319 254.305 171.48C253.842 171.638 253.375 171.78 252.904 171.912C252.434 172.046 251.965 172.187 251.498 172.339C251.026 172.472 250.549 172.584 250.074 172.708C248.169 173.222 246.218 173.548 244.249 173.682C243.266 173.786 242.276 173.751 241.288 173.792C240.794 173.812 240.298 173.798 239.806 173.749L238.327 173.642C234.403 173.229 230.576 172.166 227.004 170.496C226.987 170.488 226.975 170.474 226.968 170.457C226.962 170.44 226.963 170.421 226.971 170.404C226.978 170.39 226.989 170.379 227.004 170.372C227.018 170.365 227.034 170.363 227.05 170.367C230.805 171.239 234.616 171.846 238.456 172.185C240.361 172.352 242.273 172.421 244.185 172.393C246.096 172.317 248.016 172.223 249.93 171.971C251.852 171.748 253.74 171.293 255.552 170.617C256 170.435 256.446 170.251 256.887 170.055L258.175 169.398C259.01 168.954 259.816 168.458 260.588 167.912C261.341 167.345 262.089 166.756 262.791 166.148C263.14 165.85 263.467 165.526 263.768 165.181C264.068 164.863 264.324 164.508 264.53 164.123C264.722 163.784 264.816 163.398 264.8 163.009C264.752 162.616 264.574 162.25 264.294 161.968C263.614 161.328 262.802 160.844 261.914 160.551L261.91 160.549C261.894 160.543 261.881 160.532 261.873 160.517C261.865 160.502 261.863 160.485 261.867 160.469C261.871 160.453 261.88 160.439 261.894 160.429C261.907 160.419 261.924 160.415 261.94 160.416V160.416Z" fill="black"/>
<path d="M87.9456 103.701C85.8922 104.481 83.8873 105.382 81.9414 106.399C79.9917 107.401 78.1186 108.545 76.3372 109.821C74.5531 111.073 72.9474 112.56 71.5638 114.242C70.1761 115.896 69.3035 117.918 69.053 120.06C68.3489 124.379 67.8632 128.731 67.5979 133.099C67.4641 135.272 67.458 137.451 67.5797 139.624C67.6412 140.697 67.7767 141.764 67.9853 142.819C68.0947 143.33 68.2427 143.832 68.4281 144.321C68.5831 144.788 68.8359 145.217 69.1696 145.579C69.9 146.354 70.7038 147.056 71.5699 147.676C72.4313 148.331 73.3391 148.937 74.244 149.544C76.0689 150.742 77.9492 151.869 79.8491 152.962C83.6511 155.146 87.5303 157.208 91.4405 159.21C99.2615 163.216 107.213 166.974 115.182 170.692C123.151 174.414 131.172 178.012 139.22 181.585C146.954 185.82 155.999 186.527 164.647 185.452C173.34 184.375 181.74 181.424 189.584 177.521C197.411 173.521 204.812 168.742 211.675 163.257L211.693 163.243C213.009 162.261 214.204 161.127 215.251 159.864C215.812 159.258 216.285 158.579 216.804 157.938C217.287 157.269 217.755 156.589 218.223 155.909C220.013 153.127 221.533 150.182 222.764 147.114C224.002 144.047 225.037 140.902 225.863 137.7C226.256 136.094 226.604 134.477 226.971 132.865L227.825 127.978L227.826 127.974C227.83 127.955 227.834 127.936 227.84 127.918C230.503 119.678 233.026 111.393 235.41 103.062C237.793 94.7367 240.051 86.3736 241.996 77.9453C242.455 75.8331 242.981 73.7338 243.393 71.6136L244.043 68.4398C244.257 67.3814 244.424 66.3162 244.616 65.2549C245.025 63.1338 245.282 60.9986 245.575 58.8672C246.002 55.7413 245.712 52.5596 244.725 49.562C243.739 46.5644 242.083 43.829 239.882 41.5622C239.146 40.8289 238.348 40.1609 237.495 39.5659C236.641 38.9947 235.727 38.5182 234.769 38.1449C233.81 37.7943 232.812 37.5621 231.796 37.4535C230.775 37.3671 229.746 37.4016 228.732 37.5565C226.673 37.8885 224.69 38.5841 222.875 39.6108C221.961 40.1227 221.086 40.7024 220.258 41.3448C219.44 41.9751 218.63 42.7207 217.771 43.411C214.378 46.1804 210.78 48.6913 207.009 50.9224C203.242 53.1651 199.304 55.1086 195.231 56.7347C191.142 58.3447 186.904 59.5504 182.578 60.3345C181.49 60.4956 180.414 60.7306 179.318 60.8286L176.03 61.125C174.934 61.2016 173.83 61.169 172.731 61.1957L171.088 61.2106C170.56 61.1984 170.032 61.2077 169.505 61.229C165.258 61.3878 161.168 62.8653 157.805 65.4548C154.446 68.0751 151.893 71.5829 150.437 75.5787C149.708 77.5787 149.189 79.6486 148.887 81.7552C148.602 83.8756 148.477 86.0144 148.515 88.1535L148.515 88.1735L148.514 88.1879C148.086 96.4686 147.62 104.746 147.114 113.021C146.846 117.158 146.556 121.293 146.246 125.428C146.087 127.495 145.918 129.561 145.726 131.626C145.631 132.658 145.524 133.69 145.407 134.721C145.318 135.762 145.141 136.793 144.878 137.804C144.872 137.822 144.86 137.837 144.843 137.846C144.827 137.855 144.807 137.857 144.789 137.852C144.771 137.846 144.756 137.834 144.747 137.818C144.738 137.801 144.736 137.782 144.742 137.764L144.748 137.743C144.983 136.742 145.135 135.724 145.204 134.699C145.302 133.669 145.388 132.637 145.462 131.604C145.614 129.538 145.743 127.47 145.861 125.402C146.097 121.265 146.306 117.127 146.488 112.987C146.88 104.708 147.233 96.4279 147.547 88.1457L147.547 88.1799C147.48 85.9864 147.578 83.791 147.842 81.6124C148.127 79.4239 148.646 77.272 149.389 75.1931C150.888 70.9824 153.543 67.2754 157.051 64.494C160.599 61.7164 164.929 60.112 169.436 59.9043C169.994 59.8771 170.553 59.8629 171.112 59.8711L172.728 59.8427C173.8 59.8072 174.874 59.8318 175.943 59.7481L179.146 59.4328C180.214 59.3296 181.264 59.0888 182.324 58.9248C186.554 58.1502 190.697 56.9634 194.694 55.3815C198.691 53.7774 202.554 51.8621 206.249 49.6534C209.951 47.4542 213.483 44.9805 216.813 42.2531C217.646 41.5825 218.431 40.8532 219.331 40.1551C220.217 39.4648 221.154 38.8418 222.134 38.2913C222.626 38.0164 223.128 37.7616 223.643 37.527C224.158 37.2975 224.688 37.1045 225.21 36.8925C225.744 36.7085 226.289 36.5468 226.832 36.3878C227.392 36.2778 227.939 36.1159 228.509 36.0571C229.646 35.889 230.799 35.8563 231.944 35.9599C233.091 36.0863 234.217 36.3535 235.298 36.7554C236.364 37.175 237.381 37.7104 238.329 38.3521C239.255 39.0033 240.122 39.7344 240.92 40.5369C244.089 43.7636 246.166 47.8986 246.857 52.3615C247.213 54.567 247.24 56.8128 246.937 59.0261C246.631 61.1852 246.359 63.3519 245.938 65.4853C245.739 66.5544 245.565 67.6296 245.345 68.6935L244.676 71.8833C244.252 74.0153 243.718 76.1192 243.231 78.2352C241.194 86.6757 238.849 95.0298 236.379 103.343C233.901 111.655 231.292 119.925 228.55 128.153L228.565 128.093L227.652 133.004C227.266 134.625 226.897 136.25 226.484 137.862C225.618 141.081 224.542 144.24 223.261 147.318C222.006 150.412 220.458 153.38 218.64 156.181C218.164 156.867 217.688 157.554 217.196 158.23C216.667 158.878 216.185 159.563 215.613 160.176C214.533 161.47 213.3 162.629 211.942 163.629L211.96 163.616L209.332 165.616L208.018 166.616L206.673 167.575L203.986 169.496L201.24 171.334C197.56 173.761 193.749 175.984 189.823 177.993C181.947 181.926 173.554 185.054 164.753 186.253C162.556 186.566 160.343 186.745 158.125 186.789C155.902 186.846 153.677 186.743 151.469 186.482C149.25 186.227 147.058 185.777 144.919 185.136C143.842 184.808 142.79 184.404 141.771 183.927L138.75 182.629C130.678 179.135 122.642 175.541 114.642 171.846C106.653 168.144 98.7381 164.28 90.8989 160.255C86.9873 158.227 83.1049 156.139 79.2892 153.922C77.3822 152.811 75.4926 151.667 73.6467 150.442C72.7275 149.822 71.8129 149.195 70.9317 148.508C70.0175 147.835 69.1715 147.075 68.4058 146.238C68.002 145.782 67.6949 145.249 67.5028 144.672C67.3052 144.132 67.1492 143.578 67.036 143.015C66.8312 141.914 66.703 140.799 66.6522 139.68C66.5552 137.47 66.5882 135.256 66.751 133.049C67.0716 128.658 67.6137 124.286 68.3752 119.949L68.5169 119.136L68.7107 118.305C68.8701 117.761 69.071 117.23 69.3116 116.717C69.8015 115.707 70.4131 114.759 71.1331 113.896C72.5796 112.208 74.249 110.723 76.0957 109.483C77.9174 108.234 79.8287 107.12 81.8142 106.15C83.7889 105.169 85.8205 104.306 87.8983 103.565C87.9072 103.562 87.9166 103.561 87.926 103.561C87.9354 103.562 87.9447 103.564 87.9532 103.568C87.9617 103.572 87.9693 103.578 87.9756 103.585C87.9819 103.592 87.9868 103.6 87.9899 103.609C87.9958 103.627 87.9945 103.647 87.9862 103.664C87.978 103.681 87.9634 103.694 87.9456 103.701Z" fill="black"/>
<path d="M87.9558 103.73C85.9106 104.525 83.9147 105.441 81.9787 106.472C80.0366 107.479 78.1714 108.627 76.3981 109.906C74.6269 111.158 73.0341 112.643 71.663 114.322C71.0012 115.154 70.4437 116.065 70.0027 117.032C69.7922 117.511 69.6184 118.006 69.4829 118.511L69.3245 119.274L69.2008 120.084C68.5092 124.4 68.0359 128.747 67.7826 133.11C67.6551 135.276 67.6549 137.446 67.7819 139.612C67.8457 140.675 67.9829 141.732 68.1924 142.776C68.3008 143.276 68.447 143.767 68.6299 144.245C68.7768 144.688 69.0177 145.094 69.3361 145.435C70.0589 146.196 70.8536 146.886 71.7091 147.495C72.5662 148.142 73.4725 148.744 74.3743 149.348C76.1946 150.541 78.0729 151.663 79.9712 152.753C83.7703 154.93 87.6488 156.986 91.5587 158.982C99.3778 162.98 107.335 166.718 115.299 170.44C123.263 174.17 131.279 177.766 139.322 181.357C147.018 185.598 155.986 186.32 164.623 185.278C173.294 184.227 181.695 181.314 189.532 177.418C197.36 173.435 204.759 168.663 211.612 163.178L211.639 163.159C212.946 162.181 214.132 161.052 215.172 159.795C215.73 159.192 216.202 158.513 216.719 157.875C217.2 157.207 217.666 156.528 218.132 155.849C219.916 153.072 221.43 150.132 222.656 147.069C223.885 144.005 224.911 140.863 225.727 137.664C226.116 136.06 226.46 134.444 226.822 132.835L227.664 127.953C227.669 127.924 227.676 127.895 227.685 127.867C230.326 119.623 232.819 111.331 235.164 102.991C237.533 94.6647 239.788 86.3045 241.723 77.8813C242.18 75.771 242.704 73.6725 243.112 71.5549L243.759 68.3844C243.972 67.3273 244.137 66.2644 244.328 65.2047C244.734 63.0864 244.987 60.9579 245.278 58.8326C245.696 55.7523 245.408 52.6176 244.434 49.6647C243.46 46.7119 241.826 44.0179 239.656 41.786C238.933 41.0677 238.149 40.4135 237.313 39.8308C236.48 39.2749 235.588 38.8113 234.654 38.4481C233.722 38.1087 232.751 37.8842 231.764 37.7795C230.769 37.6968 229.768 37.7318 228.781 37.8837C226.762 38.211 224.817 38.8933 223.037 39.8988C222.137 40.4023 221.275 40.9725 220.46 41.6045C220.044 41.9237 219.666 42.2456 219.248 42.6024C218.825 42.9557 218.412 43.3229 217.98 43.6638C214.573 46.4423 210.961 48.9613 207.175 51.1994C203.392 53.4495 199.438 55.3991 195.348 57.0301C191.239 58.6461 186.98 59.856 182.634 60.6421C181.54 60.8026 180.457 61.0364 179.355 61.1333L176.05 61.4255C174.947 61.5005 173.837 61.4661 172.731 61.4909L171.083 61.5028C170.561 61.4899 170.04 61.4981 169.52 61.518C165.33 61.6663 161.292 63.116 157.969 65.6645C154.643 68.2495 152.113 71.7139 150.666 75.6628C149.94 77.6457 149.42 79.6976 149.115 81.7863C148.825 83.894 148.695 86.0205 148.726 88.1477V88.182L148.725 88.1971C148.272 96.4777 147.795 104.754 147.251 113.028C146.965 117.165 146.658 121.3 146.33 125.433C146.162 127.5 145.984 129.566 145.783 131.631C145.684 132.663 145.573 133.694 145.451 134.725C145.358 135.77 145.175 136.804 144.906 137.818C144.898 137.843 144.88 137.864 144.856 137.877C144.833 137.889 144.805 137.892 144.78 137.884C144.754 137.877 144.733 137.859 144.72 137.836C144.707 137.813 144.704 137.785 144.711 137.76L144.72 137.729C144.948 136.731 145.095 135.716 145.16 134.694C145.253 133.664 145.335 132.632 145.404 131.599C145.547 129.533 145.667 127.465 145.778 125.397C145.996 121.259 146.187 117.12 146.351 112.979C146.716 104.7 147.044 96.4192 147.336 88.1366L147.336 88.1856C147.262 85.9803 147.355 83.7726 147.614 81.5813C147.896 79.3749 148.414 77.2051 149.161 75.1091C150.669 70.8513 153.345 67.1009 156.886 64.2844C160.475 61.4658 164.857 59.8336 169.421 59.6154C169.986 59.5868 170.552 59.5715 171.117 59.5789L172.727 59.5476C173.793 59.5101 174.861 59.5331 175.924 59.4478L179.109 59.1284C180.17 59.024 181.215 58.7819 182.268 58.6173C186.477 57.8448 190.6 56.6621 194.577 55.0864C198.557 53.487 202.404 51.5779 206.083 49.3766C209.771 47.1844 213.288 44.7188 216.604 42.0006C217.024 41.6675 217.421 41.3122 217.83 40.9691C218.236 40.6209 218.683 40.2376 219.128 39.8956C220.027 39.1949 220.978 38.5624 221.972 38.0035C222.471 37.724 222.982 37.4649 223.505 37.2262C224.029 36.9926 224.567 36.7962 225.098 36.5811C225.641 36.3935 226.195 36.2284 226.749 36.0666C227.319 35.9532 227.877 35.7905 228.461 35.7301C229.625 35.5591 230.805 35.5269 231.976 35.6341C233.152 35.7645 234.306 36.0394 235.414 36.4525C236.503 36.8821 237.542 37.4304 238.511 38.0874C239.453 38.7508 240.335 39.4957 241.146 40.3134C244.358 43.5891 246.461 47.7852 247.159 52.3128C247.517 54.5462 247.542 56.82 247.234 59.0608C246.925 61.226 246.65 63.3995 246.226 65.5356C246.026 66.6064 245.851 67.6838 245.629 68.7489L244.956 71.9421C244.529 74.0768 243.992 76.1815 243.504 78.2993C239.379 95.1835 234.223 111.754 228.705 128.204L228.726 128.118L227.801 133.035C227.41 134.657 227.037 136.283 226.62 137.898C225.745 141.121 224.659 144.282 223.369 147.363C222.109 150.462 220.556 153.435 218.731 156.24C218.253 156.928 217.775 157.617 217.281 158.294C216.75 158.943 216.267 159.629 215.692 160.245C214.604 161.544 213.363 162.709 211.996 163.713L212.022 163.694L209.391 165.693L208.075 166.693L206.729 167.651L204.041 169.576L201.295 171.418C197.614 173.851 193.802 176.081 189.875 178.096C181.992 182.035 173.6 185.202 164.775 186.428C162.573 186.749 160.353 186.934 158.127 186.984C155.895 187.047 153.66 186.95 151.442 186.693C149.209 186.443 147.002 185.996 144.848 185.357C143.76 185.029 142.697 184.623 141.667 184.144L138.647 182.856C130.57 179.38 122.526 175.774 114.524 172.098C106.53 168.399 98.6155 164.527 90.7805 160.483C86.8686 158.45 82.9855 156.356 79.1669 154.131C77.2583 153.017 75.3668 151.869 73.5163 150.638C72.594 150.015 71.6778 149.384 70.7923 148.689C69.8677 148.005 69.0125 147.232 68.239 146.382C67.8199 145.905 67.5009 145.35 67.3008 144.748C67.1005 144.197 66.9427 143.632 66.8288 143.058C66.6247 141.946 66.4981 140.822 66.4498 139.693C66.358 137.474 66.3969 135.252 66.5661 133.038C66.8987 128.642 67.4531 124.265 68.2272 119.925L68.3716 119.111L68.5711 118.267C68.7344 117.717 68.9397 117.179 69.1853 116.66C69.683 115.641 70.3037 114.686 71.0337 113.816C72.4925 112.125 74.1748 110.638 76.0347 109.397C79.7118 106.936 83.6968 104.965 87.8879 103.536C87.9134 103.527 87.9413 103.529 87.9657 103.54C87.9901 103.552 88.009 103.572 88.0184 103.597C88.0277 103.623 88.0268 103.65 88.0158 103.675C88.0048 103.7 87.9846 103.719 87.9596 103.729L87.9558 103.73Z" fill="black"/>
<path d="M234.006 109.586L241.716 81.8182C241.864 81.8134 242.012 81.8134 242.161 81.8134C259.803 81.8134 274.112 88.1336 274.112 95.9336C274.112 103.729 259.803 110.049 242.161 110.049C239.436 110.051 236.713 109.896 234.006 109.586ZM157.481 45.8771C156.972 45.0008 156.189 44.3158 155.251 43.9281C154.313 43.5404 153.273 43.4715 152.291 43.7322C153.503 41.9316 152.701 38.8017 149.856 38.8017C145.873 38.8017 145.867 44.9726 149.856 44.9726C149.971 44.9672 150.086 44.9559 150.2 44.9387C149.485 45.6557 149.027 46.5871 148.896 47.5892C148.766 48.5914 148.969 49.6086 149.475 50.4841L152.879 56.3607L160.884 51.7536L157.481 45.8771Z" fill="black"/>
</g>
<defs>
<clipPath id="clip0_1_55">
<rect width="274" height="243" fill="white"/>
</clipPath>
</defs>
</svg>
