<svg width="146" height="28" viewBox="0 0 146 28" fill="none" xmlns="http://www.w3.org/2000/svg">
<path d="M4.882 14.161C4.882 15.567 5.05467 16.8497 5.4 18.009C5.74533 19.1437 6.23867 20.118 6.88 20.932C7.546 21.7213 8.34767 22.338 9.285 22.782C10.2223 23.226 11.283 23.448 12.467 23.448C13.6263 23.448 14.6747 23.226 15.612 22.782C16.5493 22.338 17.3387 21.7213 17.98 20.932C18.646 20.118 19.1517 19.1437 19.497 18.009C19.8423 16.8497 20.015 15.567 20.015 14.161C20.015 12.755 19.8423 11.4847 19.497 10.35C19.1517 9.19067 18.646 8.21633 17.98 7.427C17.3387 6.613 16.5493 5.984 15.612 5.54C14.6747 5.096 13.6263 4.874 12.467 4.874C11.283 4.874 10.2223 5.096 9.285 5.54C8.34767 5.984 7.546 6.613 6.88 7.427C6.23867 8.241 5.74533 9.21533 5.4 10.35C5.05467 11.4847 4.882 12.755 4.882 14.161ZM24.899 14.161C24.899 16.3563 24.566 18.2927 23.9 19.97C23.2587 21.6473 22.3707 23.0533 21.236 24.188C20.126 25.298 18.8187 26.1367 17.314 26.704C15.8093 27.2713 14.206 27.555 12.504 27.555C10.802 27.555 9.18633 27.2713 7.657 26.704C6.15233 26.1367 4.83267 25.298 3.698 24.188C2.588 23.0533 1.7 21.6473 1.034 19.97C0.368 18.2927 0.0350001 16.3563 0.0350001 14.161C0.0350001 11.9657 0.368 10.0417 1.034 8.389C1.7 6.71167 2.60033 5.30567 3.735 4.171C4.89433 3.03633 6.22633 2.18533 7.731 1.618C9.23567 1.05066 10.8267 0.766998 12.504 0.766998C14.1813 0.766998 15.7723 1.05066 17.277 1.618C18.7817 2.18533 20.089 3.03633 21.199 4.171C22.3337 5.30567 23.234 6.71167 23.9 8.389C24.566 10.0417 24.899 11.9657 24.899 14.161ZM29.7914 8.278C30.6547 8.03133 31.777 7.797 33.1584 7.575C34.5397 7.353 36.069 7.242 37.7464 7.242C39.325 7.242 40.6447 7.464 41.7054 7.908C42.7661 8.32733 43.6047 8.93167 44.2214 9.721C44.8627 10.4857 45.3067 11.423 45.5534 12.533C45.8247 13.6183 45.9604 14.8147 45.9604 16.122V27H41.4834V16.825C41.4834 15.789 41.4094 14.9133 41.2614 14.198C41.1381 13.458 40.9161 12.866 40.5954 12.422C40.2994 11.9533 39.8801 11.6203 39.3374 11.423C38.8194 11.201 38.1781 11.09 37.4134 11.09C36.8461 11.09 36.2541 11.127 35.6374 11.201C35.0207 11.275 34.5644 11.3367 34.2684 11.386V27H29.7914V8.278ZM50.3619 17.417C50.3619 15.715 50.6086 14.2227 51.1019 12.94C51.6199 11.6573 52.2983 10.5967 53.1369 9.758C53.9756 8.89467 54.9376 8.25333 56.0229 7.834C57.1083 7.39 58.2183 7.168 59.3529 7.168C62.0169 7.168 64.0889 7.99433 65.5689 9.647C67.0736 11.2997 67.8259 13.7663 67.8259 17.047C67.8259 17.2937 67.8136 17.5773 67.7889 17.898C67.7889 18.194 67.7766 18.4653 67.7519 18.712H54.9869C55.1103 20.266 55.6529 21.4747 56.6149 22.338C57.6016 23.1767 59.0199 23.596 60.8699 23.596C61.9553 23.596 62.9419 23.4973 63.8299 23.3C64.7426 23.1027 65.4579 22.893 65.9759 22.671L66.5679 26.334C66.3213 26.4573 65.9759 26.593 65.5319 26.741C65.1126 26.8643 64.6193 26.9753 64.0519 27.074C63.5093 27.1973 62.9173 27.296 62.2759 27.37C61.6346 27.444 60.9809 27.481 60.3149 27.481C58.6129 27.481 57.1329 27.2343 55.8749 26.741C54.6169 26.223 53.5809 25.52 52.7669 24.632C51.9529 23.7193 51.3486 22.6587 50.9539 21.45C50.5593 20.2167 50.3619 18.8723 50.3619 17.417ZM63.3489 15.419C63.3489 14.8023 63.2626 14.2227 63.0899 13.68C62.9173 13.1127 62.6583 12.6317 62.3129 12.237C61.9923 11.8177 61.5853 11.497 61.0919 11.275C60.6233 11.0283 60.0559 10.905 59.3899 10.905C58.6993 10.905 58.0949 11.0407 57.5769 11.312C57.0589 11.5587 56.6149 11.8917 56.2449 12.311C55.8996 12.7303 55.6283 13.2113 55.4309 13.754C55.2336 14.2967 55.0979 14.8517 55.0239 15.419H63.3489ZM77.5306 27C76.2973 24.4593 75.027 21.5487 73.7196 18.268C72.437 14.9627 71.2653 11.423 70.2046 7.649H74.9776C75.249 8.73433 75.5573 9.906 75.9026 11.164C76.2726 12.3973 76.655 13.643 77.0496 14.901C77.469 16.1343 77.8883 17.343 78.3076 18.527C78.7516 19.6863 79.1586 20.7347 79.5286 21.672C79.8986 20.7347 80.2933 19.6863 80.7126 18.527C81.132 17.343 81.539 16.1343 81.9336 14.901C82.353 13.643 82.7476 12.3973 83.1176 11.164C83.4876 9.906 83.8083 8.73433 84.0796 7.649H88.7046C87.644 11.423 86.46 14.9627 85.1526 18.268C83.87 21.5487 82.612 24.4593 81.3786 27H77.5306ZM109.116 17.306C109.116 18.8353 108.894 20.229 108.45 21.487C108.006 22.745 107.377 23.818 106.563 24.706C105.749 25.594 104.762 26.2847 103.603 26.778C102.468 27.2713 101.21 27.518 99.8286 27.518C98.4473 27.518 97.1893 27.2713 96.0546 26.778C94.92 26.2847 93.9456 25.594 93.1316 24.706C92.3176 23.818 91.6763 22.745 91.2076 21.487C90.7636 20.229 90.5416 18.8353 90.5416 17.306C90.5416 15.7767 90.7636 14.3953 91.2076 13.162C91.6763 11.904 92.3176 10.831 93.1316 9.943C93.9703 9.055 94.957 8.37667 96.0916 7.908C97.2263 7.41467 98.472 7.168 99.8286 7.168C101.185 7.168 102.431 7.41467 103.566 7.908C104.725 8.37667 105.712 9.055 106.526 9.943C107.34 10.831 107.969 11.904 108.413 13.162C108.881 14.3953 109.116 15.7767 109.116 17.306ZM104.528 17.306C104.528 15.382 104.108 13.865 103.27 12.755C102.456 11.6203 101.309 11.053 99.8286 11.053C98.3486 11.053 97.1893 11.6203 96.3506 12.755C95.5366 13.865 95.1296 15.382 95.1296 17.306C95.1296 19.2547 95.5366 20.7963 96.3506 21.931C97.1893 23.0657 98.3486 23.633 99.8286 23.633C101.309 23.633 102.456 23.0657 103.27 21.931C104.108 20.7963 104.528 19.2547 104.528 17.306ZM113.506 2.543L117.983 1.803V7.649H124.865V11.386H117.983V19.267C117.983 20.821 118.23 21.931 118.723 22.597C119.216 23.263 120.055 23.596 121.239 23.596C122.053 23.596 122.768 23.5097 123.385 23.337C124.026 23.1643 124.532 23.004 124.902 22.856L125.642 26.408C125.124 26.63 124.446 26.852 123.607 27.074C122.768 27.3207 121.782 27.444 120.647 27.444C119.266 27.444 118.106 27.259 117.169 26.889C116.256 26.519 115.529 25.9887 114.986 25.298C114.443 24.5827 114.061 23.7317 113.839 22.745C113.617 21.7337 113.506 20.5867 113.506 19.304V2.543ZM127.795 17.417C127.795 15.715 128.041 14.2227 128.535 12.94C129.053 11.6573 129.731 10.5967 130.57 9.758C131.408 8.89467 132.37 8.25333 133.456 7.834C134.541 7.39 135.651 7.168 136.786 7.168C139.45 7.168 141.522 7.99433 143.002 9.647C144.506 11.2997 145.259 13.7663 145.259 17.047C145.259 17.2937 145.246 17.5773 145.222 17.898C145.222 18.194 145.209 18.4653 145.185 18.712H132.42C132.543 20.266 133.086 21.4747 134.048 22.338C135.034 23.1767 136.453 23.596 138.303 23.596C139.388 23.596 140.375 23.4973 141.263 23.3C142.175 23.1027 142.891 22.893 143.409 22.671L144.001 26.334C143.754 26.4573 143.409 26.593 142.965 26.741C142.545 26.8643 142.052 26.9753 141.485 27.074C140.942 27.1973 140.35 27.296 139.709 27.37C139.067 27.444 138.414 27.481 137.748 27.481C136.046 27.481 134.566 27.2343 133.308 26.741C132.05 26.223 131.014 25.52 130.2 24.632C129.386 23.7193 128.781 22.6587 128.387 21.45C127.992 20.2167 127.795 18.8723 127.795 17.417ZM140.782 15.419C140.782 14.8023 140.695 14.2227 140.523 13.68C140.35 13.1127 140.091 12.6317 139.746 12.237C139.425 11.8177 139.018 11.497 138.525 11.275C138.056 11.0283 137.489 10.905 136.823 10.905C136.132 10.905 135.528 11.0407 135.01 11.312C134.492 11.5587 134.048 11.8917 133.678 12.311C133.332 12.7303 133.061 13.2113 132.864 13.754C132.666 14.2967 132.531 14.8517 132.457 15.419H140.782Z" fill="black"/>
</svg>
